<svg width="43" height="43" viewBox="0 0 43 43" fill="none" xmlns="http://www.w3.org/2000/svg">
<path fill-rule="evenodd" clip-rule="evenodd" d="M0.549333 34.1213C0.548 32.0773 1.33067 30.0213 2.88933 28.464L1.94667 27.5213C0.649333 26.224 -0.0013332 24.508 1.37647e-07 22.8067C-0.0013332 21.1053 0.649333 19.3893 1.94667 18.0933L18.0933 1.94667C19.392 0.648002 21.1093 -0.00133128 22.8107 2.04918e-06C24.512 -0.00133128 26.2253 0.650669 27.5213 1.94667L28.464 2.88934C30.0227 1.33067 32.0787 0.548002 34.1213 0.549335C36.1653 0.548002 38.2213 1.33067 39.7787 2.88934C41.3373 4.448 42.12 6.504 42.1187 8.54667C42.12 10.5907 41.3373 12.6467 39.7787 14.204L40.7213 15.1467C42.0173 16.4413 42.6693 18.1547 42.668 19.856C42.6693 21.5573 42.0213 23.276 40.7213 24.5747L24.5747 40.7213C23.2787 42.0187 21.5627 42.6693 19.8613 42.668C18.1587 42.6693 16.444 42.0187 15.1467 40.7213L14.204 39.7787C12.6453 41.3373 10.5893 42.12 8.54667 42.1187C6.50267 42.12 4.44667 41.3373 2.88933 39.7787C1.33067 38.22 0.548 36.164 0.549333 34.1213ZM38.8347 22.688C39.612 21.9107 39.9987 20.8907 40 19.8547C39.9987 18.8253 39.612 17.808 38.836 17.0307L37.8933 16.088L16.0893 37.892L17.032 38.8347C17.8093 39.612 18.828 39.9987 19.86 40C20.892 39.9987 21.9107 39.612 22.688 38.8347L38.8347 22.688ZM29.4067 5.71734L30.3493 4.77467C31.3907 3.73334 32.7493 3.21734 34.12 3.216C35.492 3.21734 36.8493 3.73334 37.8907 4.77467C38.932 5.816 39.448 7.17467 39.4493 8.54534C39.448 9.916 38.9307 11.2747 37.8907 12.3173L36.948 13.26L13.26 36.9493L12.3173 37.892C11.276 38.9333 9.91733 39.4493 8.54667 39.4507C7.17467 39.4493 5.81733 38.932 4.776 37.892C3.73467 36.8507 3.21867 35.492 3.21733 34.1213C3.21867 32.7493 3.736 31.392 4.776 30.3507L5.71867 29.408L29.4067 5.71734ZM19.9787 3.832L3.832 19.9787C3.05467 20.756 2.668 21.7747 2.66667 22.8067C2.668 23.84 3.05467 24.8587 3.832 25.636L4.77467 26.5787L26.5787 4.77467L25.636 3.832C24.8587 3.05467 23.8413 2.668 22.8107 2.66667C21.776 2.668 20.756 3.05467 19.9787 3.832Z" fill="white"/>
</svg>
